<?xml version="1.0" encoding="UTF-8" standalone="no"?><!DOCTYPE svg PUBLIC "-//W3C//DTD SVG 1.1//EN"
    "http://www.w3.org/Graphics/SVG/1.1/DTD/svg11.dtd">
<svg xmlns:xlink="http://www.w3.org/1999/xlink" height="12" preserveAspectRatio="xMidYMid meet"
    version="1.1" viewBox="0 0 42 12" width="42" xmlns="http://www.w3.org/2000/svg">
    <defs>
        <path
            d="M40.68 2.01L39.91 3L39.1 3.95L38.24 4.85L37.33 5.71L36.39 6.53L35.4 7.29L34.37 8.01L33.3 8.67L32.2 9.28L31.07 9.83L29.9 10.32L28.7 10.76L27.48 11.13L26.23 11.44L24.95 11.68L23.66 11.86L22.34 11.96L21 12L19.66 11.96L18.34 11.86L17.05 11.68L15.77 11.44L14.52 11.13L13.3 10.76L12.1 10.32L10.93 9.83L9.8 9.28L8.7 8.67L7.63 8.01L6.6 7.29L5.61 6.53L4.67 5.71L3.76 4.85L2.9 3.95L2.09 3L1.32 2.01L0.61 0.98L0 0L42 0L41.39 0.98L40.68 2.01Z"
            id="a73Iz6olW"></path>
    </defs>
    <g>
        <g>
            <g>
                <use fill="#000000" fill-opacity="1" opacity="1" xlink:href="#a73Iz6olW"></use>
            </g>
        </g>
    </g>
</svg>