<?xml version="1.0" encoding="UTF-8" standalone="no"?>
<!DOCTYPE svg PUBLIC "-//W3C//DTD SVG 1.1//EN" "http://www.w3.org/Graphics/SVG/1.1/DTD/svg11.dtd">
<svg version="1.1" xmlns="http://www.w3.org/2000/svg" xmlns:xlink="http://www.w3.org/1999/xlink" preserveAspectRatio="xMidYMid meet" viewBox="0 0 1400 1400" width="1400" height="1400"><defs><path d="M487.26 912.31L873.42 524.69L1678.15 1326.4L1291.99 1714.02L487.26 912.31Z" id="h2uAmjTuGb"></path><path d="M491.91 588.65C491.91 576.9 501.47 567.34 513.23 567.34C524.98 567.34 534.55 576.9 534.55 588.65C534.55 600.42 524.98 609.98 513.23 609.98C501.47 609.98 491.91 600.42 491.91 588.65Z" id="a2nBwfAfMi"></path><path d="M896.91 578L896.91 556.68C666.7 556.68 538.81 556.68 513.23 556.68C495.56 556.68 481.25 571 481.25 588.65C481.25 592.03 481.25 608.91 481.25 639.29L502.57 639.29C502.57 627 502.57 620.18 502.57 618.81C505.91 619.98 509.48 620.64 513.23 620.64C527.15 620.64 538.98 611.73 543.37 599.33C540.36 599.33 516.24 599.33 513.23 599.33C507.35 599.33 502.57 594.54 502.57 588.65C502.57 582.78 507.35 578 513.23 578C564.39 578 692.28 578 896.91 578Z" id="a3uWXgBCkX"></path><path d="M850.94 566.97C832.83 598.35 687.88 849.42 669.77 880.8C657.99 901.19 631.92 908.18 611.52 896.39C605.78 893.08 577.05 876.49 525.34 846.64L498.69 622.86C566.05 506.19 603.47 441.37 610.95 428.4C622.73 408.01 648.8 401.03 669.2 412.8C680.27 419.2 735.65 451.18 835.33 508.73C853.6 533.96 858.8 553.37 850.94 566.97Z" id="c2Sc3C70IL"></path><path d="M921.96 631.67C896.34 657.29 691.36 862.27 665.73 887.9C649.09 904.55 622.09 904.55 605.44 887.9C598.05 880.5 561.09 843.55 494.57 777.04L497.74 663.97C634.7 527.01 710.79 450.92 726.01 435.7C742.65 419.05 769.65 419.05 786.3 435.7C795.35 444.75 840.57 489.97 921.96 571.37C933.06 600.47 933.06 620.57 921.96 631.67Z" id="f1iAkTKy7J"></path><path d="M537.12 805.49L491.89 760.27L801.37 450.78L846.59 496L537.12 805.49Z" id="beSqRtEde"></path><path d="M886.27 919.08C847.9 919.08 540.94 919.08 502.57 919.08C490.8 919.08 481.25 909.55 481.25 897.77C481.25 870.06 481.25 648.35 481.25 620.64C481.25 608.86 490.8 599.33 502.57 599.33C540.94 599.33 847.9 599.33 886.27 599.33C898.05 599.33 907.6 608.86 907.6 620.64C907.6 639.11 907.6 731.49 907.6 897.77C901.24 911.98 894.13 919.08 886.27 919.08Z" id="a4Cog4gTQ"></path><path d="M918.26 833.82C924.15 833.82 928.91 829.05 928.91 823.16C928.91 810.37 928.91 708.05 928.91 695.25C928.91 689.36 924.15 684.6 918.26 684.6C904.4 684.6 793.55 684.6 779.7 684.6C779.7 684.6 737.04 735.68 737.04 759.21C737.04 782.74 779.7 833.82 779.7 833.82C807.41 833.82 904.4 833.82 918.26 833.82Z" id="i4ZtFzuaTr"></path><path d="M822.32 780.52C810.55 780.52 801.01 770.99 801.01 759.21C801.01 747.43 810.55 737.9 822.32 737.9C834.1 737.9 843.65 747.43 843.65 759.21C843.65 770.99 834.1 780.52 822.32 780.52Z" id="deAOneuaT"></path></defs><g><g><g><use xlink:href="#h2uAmjTuGb" opacity="0.2" fill="#000000" fill-opacity="1"></use></g><g><use xlink:href="#a2nBwfAfMi" opacity="1" fill="#434a54" fill-opacity="1"></use><g><use xlink:href="#a2nBwfAfMi" opacity="1" fill-opacity="0" stroke="#000000" stroke-width="1" stroke-opacity="0"></use></g></g><g><use xlink:href="#a3uWXgBCkX" opacity="1" fill="#5e5e5e" fill-opacity="1"></use><g><use xlink:href="#a3uWXgBCkX" opacity="1" fill-opacity="0" stroke="#000000" stroke-width="1" stroke-opacity="0"></use></g></g><g><use xlink:href="#c2Sc3C70IL" opacity="1" fill="#ff9000" fill-opacity="1"></use><g><use xlink:href="#c2Sc3C70IL" opacity="1" fill-opacity="0" stroke="#000000" stroke-width="1" stroke-opacity="0"></use></g></g><g><use xlink:href="#f1iAkTKy7J" opacity="1" fill="#def4fd" fill-opacity="1"></use><g><use xlink:href="#f1iAkTKy7J" opacity="1" fill-opacity="0" stroke="#000000" stroke-width="1" stroke-opacity="0"></use></g></g><g><use xlink:href="#beSqRtEde" opacity="1" fill="#434a54" fill-opacity="1"></use><g><use xlink:href="#beSqRtEde" opacity="1" fill-opacity="0" stroke="#000000" stroke-width="1" stroke-opacity="0"></use></g></g><g><use xlink:href="#a4Cog4gTQ" opacity="1" fill="#5e5e5e" fill-opacity="1"></use><g><use xlink:href="#a4Cog4gTQ" opacity="1" fill-opacity="0" stroke="#000000" stroke-width="1" stroke-opacity="0"></use></g></g><g><use xlink:href="#i4ZtFzuaTr" opacity="1" fill="#323232" fill-opacity="1"></use><g><use xlink:href="#i4ZtFzuaTr" opacity="1" fill-opacity="0" stroke="#000000" stroke-width="1" stroke-opacity="0"></use></g></g><g><use xlink:href="#deAOneuaT" opacity="1" fill="#ff9000" fill-opacity="1"></use><g><use xlink:href="#deAOneuaT" opacity="1" fill-opacity="0" stroke="#000000" stroke-width="1" stroke-opacity="0"></use></g></g></g></g></svg>